HIERARCHY
ROOT Hips
{
	OFFSET 0.000000 0.000000 0.000000
	CHANNELS 6 Xposition Yposition Zposition Zrotation Yrotation Xrotation 
	JOINT LHipJoint
	{
		OFFSET 0.000000 0.000000 0.000000
		CHANNELS 3 Zrotation Yrotation Xrotation
		JOINT LeftUpLeg
		{
			OFFSET 1.363060 -1.794630 0.839290
			CHANNELS 3 Zrotation Yrotation Xrotation
			JOINT LeftLeg
			{
				OFFSET 2.448110 -6.726130 0.000000
				CHANNELS 3 Zrotation Yrotation Xrotation
				JOINT LeftFoot
				{
					OFFSET 2.562200 -7.039590 0.000000
					CHANNELS 3 Zrotation Yrotation Xrotation
					JOINT LeftToeBase
					{
						OFFSET 0.157640 -0.433110 2.322550
						CHANNELS 3 Zrotation Yrotation Xrotation
						End Site
						{
							OFFSET 0.000000 0.000000 0.000000
						}
					}
				}
			}
		}
	}
	JOINT RHipJoint
	{
		OFFSET 0.000000 0.000000 0.000000
		CHANNELS 3 Zrotation Yrotation Xrotation
		JOINT RightUpLeg
		{
			OFFSET -1.305520 -1.794630 0.839290
			CHANNELS 3 Zrotation Yrotation Xrotation
			JOINT RightLeg
			{
				OFFSET -2.542530 -6.985550 0.000000
				CHANNELS 3 Zrotation Yrotation Xrotation
				JOINT RightFoot
				{
					OFFSET -2.568260 -7.056230 0.000000
					CHANNELS 3 Zrotation Yrotation Xrotation
					JOINT RightToeBase
					{
						OFFSET -0.164730 -0.452590 2.363150
						CHANNELS 3 Zrotation Yrotation Xrotation
						End Site
						{
							OFFSET 0.000000 0.000000 0.000000
						}
					}
				}
			}
		}
	}
}
MOTION
Frames: 11
Frame Time: 0.008333
-2.712404 17.325352 -1.187399 170.440213 -78.150043 -158.527149 -10.331457 -1.118865 -1.025233 -1.536907 -4.924717 -35.049984 0.674793 2.515193 48.806570 3.794121 24.733622 15.971254 9.719500 -0.000001 -54.874000 8.374300 0.334669 -0.668690 9.799771 7.471832 -10.166853 2.369003 0.827933 2.207806 -0.829221 -4.683584 -0.497599 -1.188200 -0.000000 -49.885000
-2.697077 17.327993 -1.205634 168.830828 -78.009129 -157.199388 -10.323637 -1.211275 -0.954725 -1.552656 -5.861278 -36.131167 0.759422 2.618733 51.064329 3.826051 24.855365 17.885660 10.404600 0.000000 -53.921200 8.399188 0.408163 -0.817295 9.517948 7.280700 -9.919898 2.325331 0.786090 2.464684 -0.824719 -4.604424 -0.634756 -1.154500 0.000001 -49.891800
-2.681148 17.330921 -1.222514 167.192506 -77.858644 -155.837143 -10.315339 -1.309170 -0.893579 -1.587333 -6.762687 -37.225732 0.831086 2.719440 53.255194 3.845139 24.849761 19.699362 10.985900 -0.000000 -52.978600 8.422927 0.482399 -0.963526 9.215005 7.110015 -9.675990 2.277349 0.743806 2.712471 -0.824683 -4.551932 -0.761366 -1.126800 0.000000 -49.930400
-2.664734 17.334156 -1.238196 165.525706 -77.695199 -154.438557 -10.306429 -1.410641 -0.841786 -1.641384 -7.624894 -38.333940 0.892959 2.819144 55.372015 3.849807 24.704954 21.352965 11.430000 -0.000000 -52.033000 8.446796 0.556708 -1.105590 8.888954 6.959512 -9.444738 2.225067 0.700177 2.960303 -0.828400 -4.520053 -0.881709 -1.103400 0.000000 -49.994900
-2.647994 17.337764 -1.252912 163.836077 -77.515287 -153.004981 -10.296247 -1.514486 -0.797907 -1.712648 -8.448035 -39.455410 0.948747 2.918242 57.402575 3.840617 24.426679 22.814680 11.724600 -0.000000 -51.292600 8.472108 0.630671 -1.241718 8.538275 6.829325 -9.236727 2.168557 0.654472 3.217398 -0.835118 -4.502927 -0.999266 -1.082699 0.000000 -50.079800
-2.630943 17.341753 -1.266850 162.140382 -77.316977 -151.551373 -10.284021 -1.619853 -0.761333 -1.796343 -9.228669 -40.593665 1.002390 3.017502 59.341054 3.817636 24.017686 24.044149 11.856800 -0.000001 -50.753500 8.499933 0.703997 -1.369820 8.164090 6.722483 -9.059454 2.107955 0.606347 3.488460 -0.844612 -4.499211 -1.113961 -1.064500 -0.000000 -50.187600
-2.613782 17.346132 -1.280224 160.450473 -77.098147 -150.085723 -10.268519 -1.726310 -0.730211 -1.887499 -9.966782 -41.750594 1.056906 3.116285 61.177203 3.782827 23.498749 25.028220 11.836201 -0.000000 -50.534500 8.531684 0.776686 -1.489302 7.766272 6.635010 -8.921655 2.043739 0.555413 3.781232 -0.855567 -4.500595 -1.228160 -1.047100 0.000000 -50.315901
-2.596537 17.350865 -1.293159 158.796663 -76.859651 -148.635834 -10.248905 -1.833344 -0.704257 -1.977483 -10.655604 -42.932652 1.115239 3.215044 62.909571 3.736659 22.879887 25.736339 11.663600 -0.000000 -50.398400 8.567571 0.848482 -1.598408 7.350265 6.570552 -8.825556 1.976513 0.502224 4.093907 -0.867997 -4.508788 -1.338535 -1.031200 0.000000 -50.469100
-2.579239 17.355885 -1.305825 157.181667 -76.600228 -147.203523 -10.223228 -1.941628 -0.680814 -2.061357 -11.298386 -44.139149 1.177357 3.311199 64.521116 3.683404 22.206431 26.202689 11.382800 -0.000000 -50.585801 8.609069 0.920188 -1.699450 6.914965 6.514816 -8.778927 1.907258 0.446310 4.436581 -0.879205 -4.507152 -1.449753 -1.013599 -0.000000 -50.640300
-2.561864 17.361132 -1.318150 155.650423 -76.324290 -145.831009 -10.190637 -2.051685 -0.659530 -2.122864 -11.889563 -45.376630 1.243273 3.404265 66.006583 3.625081 21.502828 26.438162 11.018100 -0.000000 -50.933600 8.653720 0.991682 -1.790331 6.472758 6.480856 -8.774582 1.836798 0.389866 4.792232 -0.890912 -4.510500 -1.550532 -0.998100 0.000000 -50.831100
-2.544244 17.366412 -1.330709 154.125423 -76.024908 -144.447614 -10.148713 -2.163213 -0.638169 -2.181745 -12.433221 -46.637282 1.310485 3.490902 67.348295 3.565003 20.810402 26.485372 10.612500 0.000000 -51.448500 8.708831 1.065283 -1.881814 6.001003 6.404457 -8.837297 1.766736 0.328549 5.208820 -0.892703 -4.448624 -1.671086 -0.970300 -0.000000 -51.029100
